<?xml version="1.0" encoding="UTF-8"?><svg xmlns="http://www.w3.org/2000/svg" viewBox="0 0 646.13 646.13"><defs><style>.d{fill:none;stroke:#fff;stroke-width:34.3px;}.e{fill:#231f20;}</style></defs><g id="a"/><g id="b"><g id="c"><g><path class="d" d="M628.98,39.28c0-12.17-9.96-22.13-22.13-22.13h-126.67c-5.98,0-74.53,64.84-157.11,146C240.48,81.99,171.94,17.15,165.95,17.15H39.43c-12.25,0-22.28,10.02-22.28,22.28v126.53c0,5.98,64.84,74.53,146,157.11C81.99,405.65,17.15,474.19,17.15,480.18v126.67c0,12.17,9.96,22.13,22.13,22.13h126.67c5.98,0,74.53-64.84,157.11-146,82.59,81.16,151.13,146,157.11,146h126.53c12.25,0,22.28-10.02,22.28-22.28v-126.53c0-5.98-64.84-74.53-146-157.11,81.16-82.59,146-151.13,146-157.11V39.28Zm-160.51,290.91l-29.97,29.97c-1.49,1.49-34.74,2.42-75.57,2.77-.36,40.82-1.28,74.07-2.77,75.57l-29.97,29.97c-3.92,3.92-10.33,3.92-14.25,0l-29.97-29.97c-1.49-1.49-2.42-34.74-2.77-75.57-40.82-.36-74.07-1.28-75.57-2.77l-29.97-29.97c-3.92-3.92-3.92-10.33,0-14.25l29.97-29.97c1.49-1.49,34.74-2.42,75.57-2.77,.36-40.82,1.28-74.07,2.77-75.57l29.97-29.97c3.92-3.92,10.33-3.92,14.25,0l29.97,29.97c1.49,1.49,2.42,34.74,2.77,75.57,40.82,.36,74.07,1.28,75.57,2.77l29.97,29.97c3.92,3.92,3.92,10.33,0,14.25Z"/><path class="e" d="M628.98,39.28c0-12.17-9.96-22.13-22.13-22.13h-126.67c-5.98,0-74.53,64.84-157.11,146C240.48,81.99,171.94,17.15,165.95,17.15H39.43c-12.25,0-22.28,10.02-22.28,22.28v126.53c0,5.98,64.84,74.53,146,157.11C81.99,405.65,17.15,474.19,17.15,480.18v126.67c0,12.17,9.96,22.13,22.13,22.13h126.67c5.98,0,74.53-64.84,157.11-146,82.59,81.16,151.13,146,157.11,146h126.53c12.25,0,22.28-10.02,22.28-22.28v-126.53c0-5.98-64.84-74.53-146-157.11,81.16-82.59,146-151.13,146-157.11V39.28Zm-160.51,290.91l-29.97,29.97c-1.49,1.49-34.74,2.42-75.57,2.77-.36,40.82-1.28,74.07-2.77,75.57l-29.97,29.97c-3.92,3.92-10.33,3.92-14.25,0l-29.97-29.97c-1.49-1.49-2.42-34.74-2.77-75.57-40.82-.36-74.07-1.28-75.57-2.77l-29.97-29.97c-3.92-3.92-3.92-10.33,0-14.25l29.97-29.97c1.49-1.49,34.74-2.42,75.57-2.77,.36-40.82,1.28-74.07,2.77-75.57l29.97-29.97c3.92-3.92,10.33-3.92,14.25,0l29.97,29.97c1.49,1.49,2.42,34.74,2.77,75.57,40.82,.36,74.07,1.28,75.57,2.77l29.97,29.97c3.92,3.92,3.92,10.33,0,14.25Z"/></g></g></g></svg>